<svg xmlns="http://www.w3.org/2000/svg" viewBox="0 0 920 700" font-family="'Segoe UI', Roboto, 'Helvetica Neue', Arial, sans-serif">
<rect x="0" y="0" width="920" height="700" rx="14" fill="#ffffff"/>
<rect x="1" y="1" width="918" height="698" rx="13" fill="none" stroke="#e5e7eb" stroke-width="1"/>
<text x="34" y="50" font-family="'Segoe UI', Roboto, 'Helvetica Neue', Arial, sans-serif" font-size="19" font-weight="800" fill="#0f172a">Promotion Management</text>
<text x="34" y="72" font-family="'Segoe UI', Roboto, 'Helvetica Neue', Arial, sans-serif" font-size="12.5" fill="#64748b">Entity-relationship diagram</text>
<polyline points="460,214 460,430" fill="none" stroke="#64748b" stroke-width="1.5"/>
<line x1="453" y1="226" x2="467" y2="226" stroke="#64748b" stroke-width="1.5"/>
<line x1="460" y1="416" x2="451" y2="430" stroke="#64748b" stroke-width="1.5"/>
<line x1="460" y1="416" x2="469" y2="430" stroke="#64748b" stroke-width="1.5"/>
<line x1="460" y1="416" x2="460" y2="430" stroke="#64748b" stroke-width="1.5"/>
<polyline points="348,120 140,120 140,250" fill="none" stroke="#64748b" stroke-width="1.5"/>
<line x1="336" y1="113" x2="336" y2="127" stroke="#64748b" stroke-width="1.5"/>
<line x1="140" y1="236" x2="131" y2="250" stroke="#64748b" stroke-width="1.5"/>
<line x1="140" y1="236" x2="149" y2="250" stroke="#64748b" stroke-width="1.5"/>
<line x1="140" y1="236" x2="140" y2="250" stroke="#64748b" stroke-width="1.5"/>
<polyline points="572,120 780,120 780,250" fill="none" stroke="#64748b" stroke-width="1.5"/>
<line x1="584" y1="113" x2="584" y2="127" stroke="#64748b" stroke-width="1.5"/>
<line x1="780" y1="236" x2="771" y2="250" stroke="#64748b" stroke-width="1.5"/>
<line x1="780" y1="236" x2="789" y2="250" stroke="#64748b" stroke-width="1.5"/>
<line x1="780" y1="236" x2="780" y2="250" stroke="#64748b" stroke-width="1.5"/>
<polyline points="252,465 348,465" fill="none" stroke="#64748b" stroke-width="1.5"/>
<line x1="264" y1="458" x2="264" y2="472" stroke="#64748b" stroke-width="1.5"/>
<line x1="334" y1="465" x2="348" y2="456" stroke="#64748b" stroke-width="1.5"/>
<line x1="334" y1="465" x2="348" y2="474" stroke="#64748b" stroke-width="1.5"/>
<line x1="334" y1="465" x2="348" y2="465" stroke="#64748b" stroke-width="1.5"/>
<circle cx="326" cy="465" r="4" fill="#ffffff" stroke="#64748b" stroke-width="1.5"/>
<polyline points="668,450 572,450" fill="none" stroke="#64748b" stroke-width="1.5"/>
<line x1="656" y1="443" x2="656" y2="457" stroke="#64748b" stroke-width="1.5"/>
<line x1="586" y1="450" x2="572" y2="441" stroke="#64748b" stroke-width="1.5"/>
<line x1="586" y1="450" x2="572" y2="459" stroke="#64748b" stroke-width="1.5"/>
<line x1="586" y1="450" x2="572" y2="450" stroke="#64748b" stroke-width="1.5"/>
<circle cx="594" cy="450" r="4" fill="#ffffff" stroke="#64748b" stroke-width="1.5"/>
<polyline points="256,590 348,590" fill="none" stroke="#64748b" stroke-width="1.5"/>
<line x1="268" y1="583" x2="268" y2="597" stroke="#64748b" stroke-width="1.5"/>
<line x1="334" y1="590" x2="348" y2="581" stroke="#64748b" stroke-width="1.5"/>
<line x1="334" y1="590" x2="348" y2="599" stroke="#64748b" stroke-width="1.5"/>
<line x1="334" y1="590" x2="348" y2="590" stroke="#64748b" stroke-width="1.5"/>
<rect x="348" y="30" width="224" height="184" rx="9" fill="#ffffff"/>
<path d="M 348 60 L 348 39 Q 348 30 357 30 L 563 30 Q 572 30 572 39 L 572 60 Z" fill="#1e293b"/>
<text x="362" y="50" font-family="'Segoe UI', Roboto, 'Helvetica Neue', Arial, sans-serif" font-size="13.5" font-weight="700" fill="#ffffff">Campaign</text>
<text x="560" y="50" text-anchor="end" font-family="'Segoe UI', Roboto, 'Helvetica Neue', Arial, sans-serif" font-size="9.5" fill="#cbd5e1">campaign</text>
<text x="358" y="75.0" font-family="'Segoe UI', Roboto, 'Helvetica Neue', Arial, sans-serif" font-size="8.5" font-weight="700" fill="#b45309">PK</text>
<text x="380" y="75.0" font-family="'Segoe UI', Roboto, 'Helvetica Neue', Arial, sans-serif" font-size="12" font-weight="700" fill="#0f172a">campaign_id</text>
<text x="560" y="75.0" text-anchor="end" font-family="'Segoe UI', Roboto, 'Helvetica Neue', Arial, sans-serif" font-size="10.5" fill="#94a3b8">bigint</text>
<line x1="349" y1="82" x2="571" y2="82" stroke="#f1f5f9" stroke-width="1"/>
<text x="380" y="97.0" font-family="'Segoe UI', Roboto, 'Helvetica Neue', Arial, sans-serif" font-size="12" font-weight="400" fill="#334155">campaign_name</text>
<text x="560" y="97.0" text-anchor="end" font-family="'Segoe UI', Roboto, 'Helvetica Neue', Arial, sans-serif" font-size="10.5" fill="#94a3b8">varchar</text>
<line x1="349" y1="104" x2="571" y2="104" stroke="#f1f5f9" stroke-width="1"/>
<text x="380" y="119.0" font-family="'Segoe UI', Roboto, 'Helvetica Neue', Arial, sans-serif" font-size="12" font-weight="400" fill="#334155">campaign_description</text>
<text x="560" y="119.0" text-anchor="end" font-family="'Segoe UI', Roboto, 'Helvetica Neue', Arial, sans-serif" font-size="10.5" fill="#94a3b8">varchar</text>
<line x1="349" y1="126" x2="571" y2="126" stroke="#f1f5f9" stroke-width="1"/>
<text x="380" y="141.0" font-family="'Segoe UI', Roboto, 'Helvetica Neue', Arial, sans-serif" font-size="12" font-weight="400" fill="#334155">start_date</text>
<text x="560" y="141.0" text-anchor="end" font-family="'Segoe UI', Roboto, 'Helvetica Neue', Arial, sans-serif" font-size="10.5" fill="#94a3b8">date</text>
<line x1="349" y1="148" x2="571" y2="148" stroke="#f1f5f9" stroke-width="1"/>
<text x="380" y="163.0" font-family="'Segoe UI', Roboto, 'Helvetica Neue', Arial, sans-serif" font-size="12" font-weight="400" fill="#334155">end_date</text>
<text x="560" y="163.0" text-anchor="end" font-family="'Segoe UI', Roboto, 'Helvetica Neue', Arial, sans-serif" font-size="10.5" fill="#94a3b8">date</text>
<line x1="349" y1="170" x2="571" y2="170" stroke="#f1f5f9" stroke-width="1"/>
<text x="380" y="185.0" font-family="'Segoe UI', Roboto, 'Helvetica Neue', Arial, sans-serif" font-size="12" font-weight="400" fill="#334155">created_by</text>
<text x="560" y="185.0" text-anchor="end" font-family="'Segoe UI', Roboto, 'Helvetica Neue', Arial, sans-serif" font-size="10.5" fill="#94a3b8">varchar</text>
<line x1="349" y1="192" x2="571" y2="192" stroke="#f1f5f9" stroke-width="1"/>
<text x="380" y="207.0" font-family="'Segoe UI', Roboto, 'Helvetica Neue', Arial, sans-serif" font-size="12" font-weight="400" fill="#334155">status</text>
<text x="560" y="207.0" text-anchor="end" font-family="'Segoe UI', Roboto, 'Helvetica Neue', Arial, sans-serif" font-size="10.5" fill="#94a3b8">enum</text>
<rect x="348" y="30" width="224" height="184" rx="9" fill="none" stroke="#cbd5e1" stroke-width="1.2"/>
<rect x="28" y="250" width="224" height="250" rx="9" fill="#ffffff"/>
<path d="M 28 280 L 28 259 Q 28 250 37 250 L 243 250 Q 252 250 252 259 L 252 280 Z" fill="#1e293b"/>
<text x="42" y="270" font-family="'Segoe UI', Roboto, 'Helvetica Neue', Arial, sans-serif" font-size="13.5" font-weight="700" fill="#ffffff">Promo Code</text>
<text x="240" y="270" text-anchor="end" font-family="'Segoe UI', Roboto, 'Helvetica Neue', Arial, sans-serif" font-size="9.5" fill="#cbd5e1">promo_code</text>
<text x="38" y="295.0" font-family="'Segoe UI', Roboto, 'Helvetica Neue', Arial, sans-serif" font-size="8.5" font-weight="700" fill="#b45309">PK</text>
<text x="60" y="295.0" font-family="'Segoe UI', Roboto, 'Helvetica Neue', Arial, sans-serif" font-size="12" font-weight="700" fill="#0f172a">uid</text>
<text x="240" y="295.0" text-anchor="end" font-family="'Segoe UI', Roboto, 'Helvetica Neue', Arial, sans-serif" font-size="10.5" fill="#94a3b8">bigint</text>
<line x1="29" y1="302" x2="251" y2="302" stroke="#f1f5f9" stroke-width="1"/>
<text x="38" y="317.0" font-family="'Segoe UI', Roboto, 'Helvetica Neue', Arial, sans-serif" font-size="8.5" font-weight="700" fill="#1d4ed8">FK</text>
<text x="60" y="317.0" font-family="'Segoe UI', Roboto, 'Helvetica Neue', Arial, sans-serif" font-size="12" font-weight="400" fill="#334155">campaign_id</text>
<text x="240" y="317.0" text-anchor="end" font-family="'Segoe UI', Roboto, 'Helvetica Neue', Arial, sans-serif" font-size="10.5" fill="#94a3b8">bigint</text>
<line x1="29" y1="324" x2="251" y2="324" stroke="#f1f5f9" stroke-width="1"/>
<text x="60" y="339.0" font-family="'Segoe UI', Roboto, 'Helvetica Neue', Arial, sans-serif" font-size="12" font-weight="400" fill="#334155">code</text>
<text x="240" y="339.0" text-anchor="end" font-family="'Segoe UI', Roboto, 'Helvetica Neue', Arial, sans-serif" font-size="10.5" fill="#94a3b8">varchar</text>
<line x1="29" y1="346" x2="251" y2="346" stroke="#f1f5f9" stroke-width="1"/>
<text x="60" y="361.0" font-family="'Segoe UI', Roboto, 'Helvetica Neue', Arial, sans-serif" font-size="12" font-weight="400" fill="#334155">discount_type</text>
<text x="240" y="361.0" text-anchor="end" font-family="'Segoe UI', Roboto, 'Helvetica Neue', Arial, sans-serif" font-size="10.5" fill="#94a3b8">varchar</text>
<line x1="29" y1="368" x2="251" y2="368" stroke="#f1f5f9" stroke-width="1"/>
<text x="60" y="383.0" font-family="'Segoe UI', Roboto, 'Helvetica Neue', Arial, sans-serif" font-size="12" font-weight="400" fill="#334155">discount_value</text>
<text x="240" y="383.0" text-anchor="end" font-family="'Segoe UI', Roboto, 'Helvetica Neue', Arial, sans-serif" font-size="10.5" fill="#94a3b8">decimal</text>
<line x1="29" y1="390" x2="251" y2="390" stroke="#f1f5f9" stroke-width="1"/>
<text x="60" y="405.0" font-family="'Segoe UI', Roboto, 'Helvetica Neue', Arial, sans-serif" font-size="12" font-weight="400" fill="#334155">minimum_spend</text>
<text x="240" y="405.0" text-anchor="end" font-family="'Segoe UI', Roboto, 'Helvetica Neue', Arial, sans-serif" font-size="10.5" fill="#94a3b8">decimal</text>
<line x1="29" y1="412" x2="251" y2="412" stroke="#f1f5f9" stroke-width="1"/>
<text x="60" y="427.0" font-family="'Segoe UI', Roboto, 'Helvetica Neue', Arial, sans-serif" font-size="12" font-weight="400" fill="#334155">start_date</text>
<text x="240" y="427.0" text-anchor="end" font-family="'Segoe UI', Roboto, 'Helvetica Neue', Arial, sans-serif" font-size="10.5" fill="#94a3b8">date</text>
<line x1="29" y1="434" x2="251" y2="434" stroke="#f1f5f9" stroke-width="1"/>
<text x="60" y="449.0" font-family="'Segoe UI', Roboto, 'Helvetica Neue', Arial, sans-serif" font-size="12" font-weight="400" fill="#334155">expiration_date</text>
<text x="240" y="449.0" text-anchor="end" font-family="'Segoe UI', Roboto, 'Helvetica Neue', Arial, sans-serif" font-size="10.5" fill="#94a3b8">date</text>
<line x1="29" y1="456" x2="251" y2="456" stroke="#f1f5f9" stroke-width="1"/>
<text x="60" y="471.0" font-family="'Segoe UI', Roboto, 'Helvetica Neue', Arial, sans-serif" font-size="12" font-weight="400" fill="#334155">usage_limit</text>
<text x="240" y="471.0" text-anchor="end" font-family="'Segoe UI', Roboto, 'Helvetica Neue', Arial, sans-serif" font-size="10.5" fill="#94a3b8">int</text>
<line x1="29" y1="478" x2="251" y2="478" stroke="#f1f5f9" stroke-width="1"/>
<text x="60" y="493.0" font-family="'Segoe UI', Roboto, 'Helvetica Neue', Arial, sans-serif" font-size="12" font-weight="400" fill="#334155">usage_count</text>
<text x="240" y="493.0" text-anchor="end" font-family="'Segoe UI', Roboto, 'Helvetica Neue', Arial, sans-serif" font-size="10.5" fill="#94a3b8">int</text>
<rect x="28" y="250" width="224" height="250" rx="9" fill="none" stroke="#cbd5e1" stroke-width="1.2"/>
<rect x="668" y="250" width="224" height="228" rx="9" fill="#ffffff"/>
<path d="M 668 280 L 668 259 Q 668 250 677 250 L 883 250 Q 892 250 892 259 L 892 280 Z" fill="#1e293b"/>
<text x="682" y="270" font-family="'Segoe UI', Roboto, 'Helvetica Neue', Arial, sans-serif" font-size="13.5" font-weight="700" fill="#ffffff">Coupon</text>
<text x="880" y="270" text-anchor="end" font-family="'Segoe UI', Roboto, 'Helvetica Neue', Arial, sans-serif" font-size="9.5" fill="#cbd5e1">coupon</text>
<text x="678" y="295.0" font-family="'Segoe UI', Roboto, 'Helvetica Neue', Arial, sans-serif" font-size="8.5" font-weight="700" fill="#b45309">PK</text>
<text x="700" y="295.0" font-family="'Segoe UI', Roboto, 'Helvetica Neue', Arial, sans-serif" font-size="12" font-weight="700" fill="#0f172a">uid</text>
<text x="880" y="295.0" text-anchor="end" font-family="'Segoe UI', Roboto, 'Helvetica Neue', Arial, sans-serif" font-size="10.5" fill="#94a3b8">bigint</text>
<line x1="669" y1="302" x2="891" y2="302" stroke="#f1f5f9" stroke-width="1"/>
<text x="678" y="317.0" font-family="'Segoe UI', Roboto, 'Helvetica Neue', Arial, sans-serif" font-size="8.5" font-weight="700" fill="#1d4ed8">FK</text>
<text x="700" y="317.0" font-family="'Segoe UI', Roboto, 'Helvetica Neue', Arial, sans-serif" font-size="12" font-weight="400" fill="#334155">campaign_id</text>
<text x="880" y="317.0" text-anchor="end" font-family="'Segoe UI', Roboto, 'Helvetica Neue', Arial, sans-serif" font-size="10.5" fill="#94a3b8">bigint</text>
<line x1="669" y1="324" x2="891" y2="324" stroke="#f1f5f9" stroke-width="1"/>
<text x="700" y="339.0" font-family="'Segoe UI', Roboto, 'Helvetica Neue', Arial, sans-serif" font-size="12" font-weight="400" fill="#334155">code</text>
<text x="880" y="339.0" text-anchor="end" font-family="'Segoe UI', Roboto, 'Helvetica Neue', Arial, sans-serif" font-size="10.5" fill="#94a3b8">varchar</text>
<line x1="669" y1="346" x2="891" y2="346" stroke="#f1f5f9" stroke-width="1"/>
<text x="700" y="361.0" font-family="'Segoe UI', Roboto, 'Helvetica Neue', Arial, sans-serif" font-size="12" font-weight="400" fill="#334155">discount_amount</text>
<text x="880" y="361.0" text-anchor="end" font-family="'Segoe UI', Roboto, 'Helvetica Neue', Arial, sans-serif" font-size="10.5" fill="#94a3b8">decimal</text>
<line x1="669" y1="368" x2="891" y2="368" stroke="#f1f5f9" stroke-width="1"/>
<text x="700" y="383.0" font-family="'Segoe UI', Roboto, 'Helvetica Neue', Arial, sans-serif" font-size="12" font-weight="400" fill="#334155">minimum_spend</text>
<text x="880" y="383.0" text-anchor="end" font-family="'Segoe UI', Roboto, 'Helvetica Neue', Arial, sans-serif" font-size="10.5" fill="#94a3b8">decimal</text>
<line x1="669" y1="390" x2="891" y2="390" stroke="#f1f5f9" stroke-width="1"/>
<text x="700" y="405.0" font-family="'Segoe UI', Roboto, 'Helvetica Neue', Arial, sans-serif" font-size="12" font-weight="400" fill="#334155">start_date</text>
<text x="880" y="405.0" text-anchor="end" font-family="'Segoe UI', Roboto, 'Helvetica Neue', Arial, sans-serif" font-size="10.5" fill="#94a3b8">date</text>
<line x1="669" y1="412" x2="891" y2="412" stroke="#f1f5f9" stroke-width="1"/>
<text x="700" y="427.0" font-family="'Segoe UI', Roboto, 'Helvetica Neue', Arial, sans-serif" font-size="12" font-weight="400" fill="#334155">expiration_date</text>
<text x="880" y="427.0" text-anchor="end" font-family="'Segoe UI', Roboto, 'Helvetica Neue', Arial, sans-serif" font-size="10.5" fill="#94a3b8">date</text>
<line x1="669" y1="434" x2="891" y2="434" stroke="#f1f5f9" stroke-width="1"/>
<text x="700" y="449.0" font-family="'Segoe UI', Roboto, 'Helvetica Neue', Arial, sans-serif" font-size="12" font-weight="400" fill="#334155">usage_limit</text>
<text x="880" y="449.0" text-anchor="end" font-family="'Segoe UI', Roboto, 'Helvetica Neue', Arial, sans-serif" font-size="10.5" fill="#94a3b8">int</text>
<line x1="669" y1="456" x2="891" y2="456" stroke="#f1f5f9" stroke-width="1"/>
<text x="700" y="471.0" font-family="'Segoe UI', Roboto, 'Helvetica Neue', Arial, sans-serif" font-size="12" font-weight="400" fill="#334155">usage_count</text>
<text x="880" y="471.0" text-anchor="end" font-family="'Segoe UI', Roboto, 'Helvetica Neue', Arial, sans-serif" font-size="10.5" fill="#94a3b8">int</text>
<rect x="668" y="250" width="224" height="228" rx="9" fill="none" stroke="#cbd5e1" stroke-width="1.2"/>
<rect x="348" y="430" width="224" height="184" rx="9" fill="#ffffff"/>
<path d="M 348 460 L 348 439 Q 348 430 357 430 L 563 430 Q 572 430 572 439 L 572 460 Z" fill="#1e293b"/>
<text x="362" y="450" font-family="'Segoe UI', Roboto, 'Helvetica Neue', Arial, sans-serif" font-size="13.5" font-weight="700" fill="#ffffff">Redemption</text>
<text x="560" y="450" text-anchor="end" font-family="'Segoe UI', Roboto, 'Helvetica Neue', Arial, sans-serif" font-size="9.5" fill="#cbd5e1">redemption</text>
<text x="358" y="475.0" font-family="'Segoe UI', Roboto, 'Helvetica Neue', Arial, sans-serif" font-size="8.5" font-weight="700" fill="#b45309">PK</text>
<text x="380" y="475.0" font-family="'Segoe UI', Roboto, 'Helvetica Neue', Arial, sans-serif" font-size="12" font-weight="700" fill="#0f172a">uid</text>
<text x="560" y="475.0" text-anchor="end" font-family="'Segoe UI', Roboto, 'Helvetica Neue', Arial, sans-serif" font-size="10.5" fill="#94a3b8">bigint</text>
<line x1="349" y1="482" x2="571" y2="482" stroke="#f1f5f9" stroke-width="1"/>
<text x="358" y="497.0" font-family="'Segoe UI', Roboto, 'Helvetica Neue', Arial, sans-serif" font-size="8.5" font-weight="700" fill="#1d4ed8">FK</text>
<text x="380" y="497.0" font-family="'Segoe UI', Roboto, 'Helvetica Neue', Arial, sans-serif" font-size="12" font-weight="400" fill="#334155">campaign_id</text>
<text x="560" y="497.0" text-anchor="end" font-family="'Segoe UI', Roboto, 'Helvetica Neue', Arial, sans-serif" font-size="10.5" fill="#94a3b8">bigint</text>
<line x1="349" y1="504" x2="571" y2="504" stroke="#f1f5f9" stroke-width="1"/>
<text x="358" y="519.0" font-family="'Segoe UI', Roboto, 'Helvetica Neue', Arial, sans-serif" font-size="8.5" font-weight="700" fill="#1d4ed8">FK</text>
<text x="380" y="519.0" font-family="'Segoe UI', Roboto, 'Helvetica Neue', Arial, sans-serif" font-size="12" font-weight="400" fill="#334155">promo_code_id</text>
<text x="560" y="519.0" text-anchor="end" font-family="'Segoe UI', Roboto, 'Helvetica Neue', Arial, sans-serif" font-size="10.5" fill="#94a3b8">bigint</text>
<line x1="349" y1="526" x2="571" y2="526" stroke="#f1f5f9" stroke-width="1"/>
<text x="358" y="541.0" font-family="'Segoe UI', Roboto, 'Helvetica Neue', Arial, sans-serif" font-size="8.5" font-weight="700" fill="#1d4ed8">FK</text>
<text x="380" y="541.0" font-family="'Segoe UI', Roboto, 'Helvetica Neue', Arial, sans-serif" font-size="12" font-weight="400" fill="#334155">coupon_id</text>
<text x="560" y="541.0" text-anchor="end" font-family="'Segoe UI', Roboto, 'Helvetica Neue', Arial, sans-serif" font-size="10.5" fill="#94a3b8">bigint</text>
<line x1="349" y1="548" x2="571" y2="548" stroke="#f1f5f9" stroke-width="1"/>
<text x="358" y="563.0" font-family="'Segoe UI', Roboto, 'Helvetica Neue', Arial, sans-serif" font-size="8.5" font-weight="700" fill="#1d4ed8">FK</text>
<text x="380" y="563.0" font-family="'Segoe UI', Roboto, 'Helvetica Neue', Arial, sans-serif" font-size="12" font-weight="400" fill="#334155">user_id</text>
<text x="560" y="563.0" text-anchor="end" font-family="'Segoe UI', Roboto, 'Helvetica Neue', Arial, sans-serif" font-size="10.5" fill="#94a3b8">bigint</text>
<line x1="349" y1="570" x2="571" y2="570" stroke="#f1f5f9" stroke-width="1"/>
<text x="380" y="585.0" font-family="'Segoe UI', Roboto, 'Helvetica Neue', Arial, sans-serif" font-size="12" font-weight="400" fill="#334155">redemption_date</text>
<text x="560" y="585.0" text-anchor="end" font-family="'Segoe UI', Roboto, 'Helvetica Neue', Arial, sans-serif" font-size="10.5" fill="#94a3b8">date</text>
<line x1="349" y1="592" x2="571" y2="592" stroke="#f1f5f9" stroke-width="1"/>
<text x="380" y="607.0" font-family="'Segoe UI', Roboto, 'Helvetica Neue', Arial, sans-serif" font-size="12" font-weight="400" fill="#334155">discount_amount</text>
<text x="560" y="607.0" text-anchor="end" font-family="'Segoe UI', Roboto, 'Helvetica Neue', Arial, sans-serif" font-size="10.5" fill="#94a3b8">decimal</text>
<rect x="348" y="430" width="224" height="184" rx="9" fill="none" stroke="#cbd5e1" stroke-width="1.2"/>
<rect x="56" y="560" width="200" height="96" rx="9" fill="#ffffff"/>
<path d="M 56 590 L 56 569 Q 56 560 65 560 L 247 560 Q 256 560 256 569 L 256 590 Z" fill="#1e293b"/>
<text x="70" y="580" font-family="'Segoe UI', Roboto, 'Helvetica Neue', Arial, sans-serif" font-size="13.5" font-weight="700" fill="#ffffff">User</text>
<text x="244" y="580" text-anchor="end" font-family="'Segoe UI', Roboto, 'Helvetica Neue', Arial, sans-serif" font-size="9.5" fill="#cbd5e1">users</text>
<text x="66" y="605.0" font-family="'Segoe UI', Roboto, 'Helvetica Neue', Arial, sans-serif" font-size="8.5" font-weight="700" fill="#b45309">PK</text>
<text x="88" y="605.0" font-family="'Segoe UI', Roboto, 'Helvetica Neue', Arial, sans-serif" font-size="12" font-weight="700" fill="#0f172a">uid</text>
<text x="244" y="605.0" text-anchor="end" font-family="'Segoe UI', Roboto, 'Helvetica Neue', Arial, sans-serif" font-size="10.5" fill="#94a3b8">bigint</text>
<line x1="57" y1="612" x2="255" y2="612" stroke="#f1f5f9" stroke-width="1"/>
<text x="88" y="627.0" font-family="'Segoe UI', Roboto, 'Helvetica Neue', Arial, sans-serif" font-size="12" font-weight="400" fill="#334155">name</text>
<text x="244" y="627.0" text-anchor="end" font-family="'Segoe UI', Roboto, 'Helvetica Neue', Arial, sans-serif" font-size="10.5" fill="#94a3b8">varchar</text>
<line x1="57" y1="634" x2="255" y2="634" stroke="#f1f5f9" stroke-width="1"/>
<text x="88" y="649.0" font-family="'Segoe UI', Roboto, 'Helvetica Neue', Arial, sans-serif" font-size="12" font-weight="400" fill="#334155">email</text>
<text x="244" y="649.0" text-anchor="end" font-family="'Segoe UI', Roboto, 'Helvetica Neue', Arial, sans-serif" font-size="10.5" fill="#94a3b8">varchar</text>
<rect x="56" y="560" width="200" height="96" rx="9" fill="none" stroke="#cbd5e1" stroke-width="1.2"/>
<rect x="636" y="556" width="256" height="126" rx="10" fill="#f8fafc" stroke="#e2e8f0" stroke-width="1"/>
<text x="652" y="580" font-family="'Segoe UI', Roboto, 'Helvetica Neue', Arial, sans-serif" font-size="12" font-weight="700" fill="#334155">Legend</text>
<rect x="652" y="590" width="24" height="15" rx="4" fill="#fef3c7"/>
<text x="664" y="601" text-anchor="middle" font-family="'Segoe UI', Roboto, 'Helvetica Neue', Arial, sans-serif" font-size="8.5" font-weight="700" fill="#b45309">PK</text>
<text x="686" y="602" font-family="'Segoe UI', Roboto, 'Helvetica Neue', Arial, sans-serif" font-size="11" fill="#475569">Primary key</text>
<rect x="652" y="612" width="24" height="15" rx="4" fill="#dbeafe"/>
<text x="664" y="623" text-anchor="middle" font-family="'Segoe UI', Roboto, 'Helvetica Neue', Arial, sans-serif" font-size="8.5" font-weight="700" fill="#1d4ed8">FK</text>
<text x="686" y="624" font-family="'Segoe UI', Roboto, 'Helvetica Neue', Arial, sans-serif" font-size="11" fill="#475569">Foreign key</text>
<line x1="654" y1="648" x2="694" y2="648" stroke="#64748b" stroke-width="1.5"/>
<line x1="670" y1="641" x2="670" y2="655" stroke="#64748b" stroke-width="1.5"/>
<line x1="708" y1="648" x2="694" y2="639" stroke="#64748b" stroke-width="1.5"/>
<line x1="708" y1="648" x2="694" y2="657" stroke="#64748b" stroke-width="1.5"/>
<line x1="708" y1="648" x2="694" y2="648" stroke="#64748b" stroke-width="1.5"/>
<text x="718" y="652" font-family="'Segoe UI', Roboto, 'Helvetica Neue', Arial, sans-serif" font-size="11" fill="#475569">One-to-many</text>
</svg>
